<svg width="428" height="324" viewBox="0 0 428 324" fill="none" xmlns="http://www.w3.org/2000/svg">
<path d="M298.689 173.293C276.905 202.887 251.907 219.488 224.389 222.63C185.095 227.119 153.406 202.374 147.451 197.366C146.717 196.75 146.336 196.404 146.256 196.328C120.667 171.483 107.919 144.938 108.366 117.427C109.065 74.502 141.45 45.1201 142.85 43.8694C179.531 11.7415 215.564 12.5993 240.009 19.465C248.472 9.31116 259.84 -3.68486 268.587 -11.3363C269.918 -12.501 271.382 -14.2252 272.934 -16.051C277.03 -20.8687 281.675 -26.328 287.752 -26.0466C289.211 -25.9781 290.741 -25.49 292.385 -24.6211C293.575 -26.3256 295.35 -27.9683 297.912 -28.8291C304.79 -31.1405 314.028 -27.1564 325.864 -16.9523C326.342 -16.5988 327.667 -15.5945 329.421 -14.1198C335.308 -9.17048 346.008 1.08186 345.565 9.88039C345.478 11.6373 344.899 13.879 343.108 15.9816C344.897 17.7297 345.782 19.14 345.998 20.57C346.713 25.3045 341.307 31.7782 331.079 42.0688C330.138 43.0176 329.373 43.7851 328.895 44.2987C324.088 49.4822 318.718 54.4136 313.523 59.1837C310.143 62.289 306.666 65.4826 303.359 68.7318C339.924 125.761 298.925 173.046 298.689 173.293ZM338.876 9.48681C339.179 3.55615 328.625 -6.58925 321.703 -11.7552C308.297 -23.4321 302.153 -23.1438 300.16 -22.5076C299.02 -22.1421 298.299 -21.3819 297.826 -20.6638C299.364 -19.2991 300.849 -17.8596 302.172 -16.5455C303.351 -15.3731 304.416 -14.3073 305.408 -13.4735L305.416 -13.4665C309.369 -10.2197 313.398 -7.13529 317.427 -4.0509C322.064 -0.500103 326.86 3.17223 331.495 7.06638C331.944 7.44385 332.884 8.09798 334.049 8.91912C335.182 9.71893 336.541 10.6819 337.912 11.6983C338.631 10.8877 338.844 10.1192 338.876 9.48681ZM339.316 21.6721C339.048 21.3308 338.419 20.6265 337.019 19.449C334.952 17.7109 332.214 15.7805 330.216 14.3691C328.839 13.3984 327.737 12.6107 327.207 12.1656C322.691 8.37148 317.961 4.74795 313.381 1.24338C309.291 -1.89006 305.2 -5.02043 301.02 -8.45874C300.02 -9.2996 298.806 -10.4985 297.468 -11.8279C295.973 -13.3145 294.304 -14.9785 292.597 -16.4137C289.623 -18.9138 288.129 -19.337 287.502 -19.366C285.187 -19.4742 282.289 -16.5589 279.686 -13.5862C290.283 -4.77018 298.411 1.36892 307.68 8.35803C312.912 12.3038 318.494 16.5129 325.074 21.6234C325.109 21.6499 325.144 21.6795 325.178 21.7076C326.553 22.864 326.786 24.899 325.687 26.3183C324.559 27.7723 322.457 28.0279 320.99 26.8883C314.44 21.8001 308.883 17.609 303.674 13.683C294.298 6.61156 286.082 0.405691 275.305 -8.56449C274.55 -7.74567 273.796 -6.96464 273.025 -6.29002C271.61 -5.05225 270.103 -3.62411 268.562 -2.12334C279.599 7.09467 287.915 13.3767 297.442 20.5614C302.67 24.5043 308.249 28.7106 314.823 33.8155C314.858 33.842 314.893 33.8715 314.927 33.8997C316.302 35.0561 316.535 37.0911 315.436 38.5103C314.308 39.9644 312.206 40.22 310.739 39.0804C304.196 33.9979 298.642 29.8096 293.436 25.8833C283.712 18.5519 275.244 12.156 263.863 2.63254C261.86 4.72507 259.835 6.90101 257.808 9.14931C266.2 16.1329 275.339 23.3844 285.738 31.2773C294.017 37.5578 303.049 45.5402 310.765 51.7927C311.02 51.8015 311.232 51.8752 311.465 51.9166C315.762 47.9542 320.088 43.907 323.964 39.7302C324.475 39.1798 325.294 38.3523 326.304 37.3376C334.422 29.1688 338.794 23.905 339.316 21.6721ZM296.291 70.1189C295.397 68.7949 295.555 67.0353 296.669 65.9086C299.779 62.7611 303.04 59.7187 306.278 56.7309C301.173 52.5804 295.497 47.7015 289.892 43.0943C287.799 45.5385 285.457 47.7514 283.167 49.904C280.943 51.9981 278.843 53.9723 277.011 56.1038C272.868 60.9253 268.793 65.8063 264.719 70.6886L258.577 78.0279C247.592 91.0931 236.966 105.257 231.668 121.206C234.051 123.405 236.376 125.646 238.574 127.939C241.752 131.257 244.89 135.312 244.059 140.218C243.238 145.072 237.752 151.923 232.519 152.998C228.798 153.765 226.387 152.398 225.068 151.093C221.618 147.782 220.731 140.893 222.431 130.615C222.842 128.133 223.383 125.69 224.044 123.282C222.096 121.539 220.129 119.817 218.186 118.115C215.327 115.615 212.482 113.126 209.744 110.615C208.579 109.545 207.356 108.391 206.08 107.191C203.158 104.44 199.907 101.358 196.474 98.5138C188.273 104.745 177.458 112.029 172.328 111.765C170.451 111.671 169.327 110.791 168.716 110.076C164.263 104.85 172.545 88.3617 174.587 86.4324C179.962 81.3662 183.676 82.6448 188.73 85.177C191.348 86.4882 193.953 88.1713 196.497 90.0527C198.985 88.0901 201.032 86.3629 202.218 85.207C207.95 79.6217 213.342 73.4288 218.556 67.4391C221.866 63.6378 225.18 59.8332 228.611 56.1303C230.378 54.222 232.85 51.8232 236.164 48.796C237.525 47.5547 239.668 47.6651 240.897 49.0267C242.151 50.3955 242.066 52.5091 240.708 53.7501C237.531 56.6518 235.188 58.9209 233.546 60.6938C230.162 64.3481 226.894 68.1027 223.628 71.8539C218.326 77.942 212.845 84.2394 206.919 90.0154C206.466 90.4559 204.561 92.1066 201.829 94.3148C204.977 97.0015 207.957 99.807 210.652 102.345C211.904 103.526 213.109 104.657 214.253 105.707C216.951 108.185 219.757 110.639 222.574 113.103C223.805 114.18 225.047 115.267 226.288 116.362C232.294 100.278 243.101 85.9862 253.431 73.7011L259.558 66.3801C263.651 61.4745 267.747 56.5686 271.909 51.7239C273.971 49.3262 276.299 47.1356 278.552 45.0175C280.745 42.9556 282.841 40.9728 284.656 38.8713C283.667 38.0927 282.683 37.3219 281.716 36.5882C271.17 28.5849 261.902 21.2279 253.389 14.1388C249.96 18.0665 246.667 21.9606 243.794 25.4319C242.941 26.4631 241.548 26.8786 240.258 26.4881C217.427 19.5691 182.766 17.8446 147.319 48.8931C147.001 49.1757 115.683 77.6666 115.062 117.66C114.666 143.218 126.725 168.08 150.823 191.478C151.107 191.725 183.246 220.592 223.569 215.987C249.177 213.061 272.63 197.355 293.469 169.068C295.08 167.244 332.528 123.79 296.291 70.1189ZM229.671 128.469C229.433 129.558 229.222 130.655 229.038 131.762C227.676 140.009 228.419 145.077 229.687 146.293C229.701 146.307 229.718 146.325 229.738 146.341C229.882 146.463 230.203 146.636 231.112 146.448C233.28 146.002 237.015 141.645 237.456 139.046C237.791 137.056 235.653 134.521 233.752 132.538C232.443 131.171 231.076 129.814 229.671 128.469ZM190.944 94.2664C189.214 93.0695 187.48 92.0059 185.77 91.149C181.715 89.1193 181.532 89.1235 179.252 91.27C177.774 92.9119 174.504 100.988 174.054 104.781C177.561 103.562 184.631 98.8978 190.944 94.2664Z" fill="#2F2F37"/>
<path d="M204.507 253.075C204.357 259.605 205.109 272.239 206.627 282.078C206.908 283.907 205.656 285.603 203.829 285.869C202.001 286.131 200.293 284.867 200.008 283.041C198.596 273.898 197.63 260.641 197.811 252.863C197.853 251.017 199.387 249.567 201.235 249.627C202.023 249.652 202.74 249.946 203.301 250.418C204.058 251.054 204.531 252.016 204.507 253.075Z" fill="#2F2F37"/>
<path d="M274.969 251.361C275.668 252.459 276.475 253.489 277.277 254.517C278.822 256.505 280.422 258.561 281.468 261.092C282.174 262.806 281.36 264.753 279.652 265.445C277.939 266.136 275.985 265.3 275.276 263.593C274.581 261.91 273.327 260.297 272 258.589C271.07 257.393 270.137 256.187 269.327 254.913C267.729 252.406 266.69 248.194 265.589 243.732C264.687 240.081 263.566 235.534 262.472 234.054C261.371 232.561 261.682 230.468 263.167 229.381C264.434 228.455 266.144 228.558 267.304 229.534C267.505 229.703 267.689 229.897 267.853 230.117C269.748 232.685 270.886 237.3 272.092 242.187C272.97 245.751 273.968 249.788 274.969 251.361Z" fill="#2F2F37"/>
<path d="M342.006 202.15L322.065 185.384C320.645 184.19 320.452 182.079 321.636 180.671C322.819 179.263 324.932 179.09 326.353 180.285L346.294 197.051C347.714 198.246 347.906 200.357 346.723 201.764C345.539 203.172 343.427 203.345 342.006 202.15Z" fill="#2F2F37"/>
<path d="M34.9687 141.632C33.1393 141.434 31.7838 139.798 31.9547 137.956C32.1324 136.119 33.7668 134.787 35.6096 134.98C47.1479 136.189 63.8898 136.652 76.2745 134.314C77.3071 134.12 78.3216 134.424 79.0704 135.053C79.64 135.532 80.0549 136.198 80.2113 136.981C80.5699 138.796 79.3881 140.545 77.5755 140.888C66.4543 142.984 50.5254 143.262 34.9687 141.632Z" fill="#2F2F37"/>
<path d="M98.6428 237.628L116.485 211.562C117.523 210.044 119.607 209.665 121.138 210.717C121.23 210.781 121.317 210.848 121.402 210.92C122.709 212.018 123.002 213.945 122.026 215.371L104.184 241.437C103.145 242.955 101.062 243.334 99.5308 242.282C98.0223 241.243 97.6042 239.149 98.6428 237.628Z" fill="#2F2F37"/>
<path d="M60.1891 50.1056C60.9248 48.4178 62.8973 47.6565 64.5944 48.4063L93.792 61.3049C94.0935 61.4394 94.3644 61.6104 94.6056 61.8132C95.7179 62.7485 96.1373 64.3309 95.5336 65.7188C94.7979 67.4066 92.8254 68.1678 91.1283 67.418L61.9307 54.5195C60.2386 53.7569 59.4534 51.7934 60.1891 50.1056Z" fill="#2F2F37"/>
<path d="M134.21 18.2243L119.358 -17.6872C118.65 -19.3989 119.463 -21.348 121.171 -22.0397C122.361 -22.5205 123.673 -22.2647 124.598 -21.4872C125.001 -21.1478 125.332 -20.7112 125.546 -20.1909L140.399 15.7206C141.107 17.4324 140.294 19.3815 138.586 20.0731C136.872 20.7653 134.911 19.9351 134.21 18.2243Z" fill="#2F2F37"/>
<path d="M208.473 -4.51925L204.762 -32.2531C204.516 -34.0862 205.804 -35.7574 207.636 -35.9847C208.604 -36.1057 209.529 -35.8012 210.224 -35.2167C210.848 -34.6928 211.284 -33.9464 211.4 -33.0811L215.111 -5.34718C215.356 -3.5141 214.069 -1.84292 212.236 -1.61559C210.398 -1.38469 208.714 -2.68732 208.473 -4.51925Z" fill="#2F2F37"/>
<path d="M341.449 110.905C339.626 111.186 337.908 109.934 337.605 108.107C337.309 106.283 338.547 104.575 340.373 104.294L369.112 99.8778C370.11 99.725 371.075 100.029 371.795 100.635C372.392 101.136 372.82 101.848 372.956 102.676C373.252 104.5 372.014 106.208 370.188 106.489L341.449 110.905Z" fill="#2F2F37"/>
<path d="M260.114 27.9941C260.178 28.0476 260.239 28.1014 260.298 28.1599C261.63 29.4527 261.668 31.5702 260.385 32.8885L251.862 41.6454C250.579 42.9638 248.452 42.9602 247.126 41.6901C245.794 40.3972 245.756 38.2798 247.039 36.9614L255.563 28.2045C256.787 26.945 258.778 26.8701 260.114 27.9941Z" fill="#2F2F37"/>
</svg>
