<svg width="105" height="109" viewBox="0 0 105 109" fill="none" xmlns="http://www.w3.org/2000/svg">
<g clip-path="url(#clip0_672_881)">
<path d="M76.9537 46.94C74.2872 38.2163 69.7985 32.2712 63.6121 29.2708C54.7785 24.9858 45.3204 28.1737 43.5136 28.8564C43.291 28.9405 43.1733 28.9902 43.1485 29.0013C35.1107 32.7144 29.9407 37.8826 27.7816 44.3625C24.4129 54.4733 29.5798 64.0198 29.8048 64.4279C35.752 74.971 44.2618 77.7352 50.552 78.1389C51.6986 81.2134 53.2915 85.1926 54.7103 87.7044C54.9262 88.0867 55.1272 88.611 55.3405 89.1663C55.9035 90.6318 56.5421 92.2926 57.9885 92.7267C58.336 92.8308 58.7344 92.8424 59.1909 92.7741C59.3294 93.2713 59.6099 93.8021 60.139 94.2145C61.5599 95.3219 64.0511 95.1489 67.663 93.733C67.8039 93.6896 68.1971 93.5634 68.7292 93.3624C70.5152 92.6876 73.865 91.167 74.4851 89.0698C74.6093 88.6512 74.6582 88.0785 74.4118 87.4387C74.9746 87.1765 75.298 86.919 75.4663 86.6019C76.0232 85.5518 75.2898 83.5908 73.7412 80.339C73.5989 80.0394 73.4828 79.7966 73.4132 79.6371C72.7139 78.0274 71.862 76.4306 71.0379 74.8859C70.5018 73.8805 69.9502 72.8464 69.4431 71.8133C82.6997 61.4656 76.9886 47.0172 76.9537 46.94ZM72.8861 88.6116C72.469 90.0255 69.1625 91.5332 67.1161 92.1734C63.0155 93.8051 61.6002 93.232 61.1857 92.9189C60.9488 92.7395 60.8425 92.5022 60.7908 92.295C61.2634 92.102 61.7297 91.8871 62.1477 91.6882C62.5202 91.5106 62.8575 91.3486 63.1583 91.235L63.1609 91.234C64.3538 90.7988 65.5512 90.408 66.7486 90.0172C68.127 89.5672 69.5523 89.1017 70.9583 88.5711C71.0945 88.5196 71.3684 88.4437 71.7089 88.3473C72.0401 88.2532 72.4375 88.1395 72.8423 88.0143C72.9441 88.2633 72.9308 88.4609 72.8861 88.6116ZM73.9919 85.7939C73.9011 85.8518 73.6959 85.965 73.271 86.1255C72.6438 86.3625 71.8439 86.5894 71.2596 86.7554C70.8572 86.8695 70.5343 86.9633 70.3737 87.024C69.0039 87.541 67.5977 88.0003 66.2368 88.4443C65.0209 88.8416 63.8053 89.2381 62.5433 89.6994C62.2399 89.814 61.857 89.995 61.4341 90.1962C60.9616 90.4213 60.4338 90.6737 59.9159 90.8694C59.0138 91.2102 58.629 91.1864 58.4797 91.1415C57.9285 90.9763 57.4899 90.0551 57.1247 89.1447C60.3322 87.9519 62.741 87.183 65.4869 86.3088C67.0369 85.8152 68.6907 85.2888 70.6524 84.6333C70.6627 84.63 70.6734 84.626 70.6836 84.6221C71.1008 84.4645 71.3229 84.0071 71.1824 83.5842C71.0378 83.1508 70.5665 82.918 70.1292 83.0642C68.1764 83.7169 66.5299 84.2411 64.9869 84.732C62.209 85.6166 59.7741 86.394 56.5119 87.608C56.4024 87.3541 56.2901 87.1092 56.165 86.8877C55.9356 86.4814 55.7001 86.0229 55.4628 85.5446C58.8063 84.294 61.2707 83.5069 64.0933 82.6082C65.6424 82.115 67.2952 81.589 69.2548 80.9343C69.2651 80.931 69.2758 80.9269 69.286 80.9231C69.7032 80.7654 69.9253 80.308 69.7848 79.8852C69.6402 79.4518 69.1689 79.219 68.7316 79.3652C66.7808 80.0171 65.1353 80.5409 63.5931 81.0321C60.7123 81.949 58.2028 82.7501 54.7535 84.044C54.4567 83.3892 54.1614 82.7129 53.8718 82.0195C56.4119 81.0745 59.149 80.1282 62.2341 79.1354C64.6898 78.3457 67.4621 77.2194 69.7837 76.39C69.8443 76.4089 69.8998 76.409 69.9579 76.4186C70.6381 77.7002 71.3183 79.0041 71.8823 80.3012C71.9568 80.4722 72.0805 80.7334 72.2336 81.0542C73.4627 83.6354 74.0534 85.228 73.9919 85.7939ZM67.9019 70.9068C67.5836 71.1433 67.4759 71.5684 67.6439 71.9239C68.1132 72.917 68.6267 73.898 69.1393 74.8642C67.6021 75.4162 65.8712 76.0918 64.1794 76.7096C63.8904 75.9649 63.5239 75.2539 63.1647 74.5613C62.8162 73.8878 62.4867 73.2526 62.233 72.6026C61.6595 71.1325 61.1067 69.654 60.5544 68.1753L59.7198 65.9509C58.2221 61.987 56.8991 57.7953 56.9708 53.624C57.7098 53.3051 58.4387 52.9715 59.1422 52.6154C60.1595 52.0998 61.2282 51.4082 61.4373 50.1909C61.6444 48.9864 60.9233 46.9304 59.7862 46.2481C58.9777 45.7622 58.3006 45.884 57.8843 46.081C56.8039 46.5726 56.0292 48.113 55.5815 50.6602C55.4735 51.2753 55.3993 51.8921 55.356 52.5105C54.7562 52.7584 54.1539 52.9998 53.5588 53.2384C52.6834 53.5887 51.8122 53.9375 50.9643 54.3004C50.6035 54.4552 50.222 54.6246 49.8245 54.8007C48.9137 55.2047 47.8988 55.6589 46.8607 56.0425C45.4526 53.9082 43.5193 51.3123 42.2959 50.9521C41.8486 50.8195 41.5129 50.9331 41.3109 51.0503C39.8379 51.9078 40.4208 56.4511 40.7404 57.071C41.5823 58.6998 42.5575 58.706 43.9495 58.5289C44.6704 58.4372 45.4191 58.2573 46.1698 58.0261C46.591 58.6905 46.9283 59.2634 47.111 59.6318C47.9937 61.4115 48.7471 63.3057 49.4752 65.1376C49.9378 66.3003 50.4007 67.464 50.8995 68.6136C51.1564 69.206 51.5379 69.9711 52.0651 70.9529C52.2817 71.3556 52.7927 71.5061 53.1925 71.2883C53.5988 71.0709 53.753 70.569 53.537 70.1666C53.0316 69.2255 52.6697 68.5013 52.431 67.9509C51.9391 66.8166 51.4826 65.6683 51.0264 64.521C50.2857 62.6588 49.5203 60.7329 48.6077 58.8925C48.5378 58.752 48.2273 58.2086 47.7693 57.4666C48.7277 57.0965 49.6564 56.6846 50.4965 56.3119C50.8869 56.1385 51.2621 55.9725 51.6166 55.8208C52.4523 55.4624 53.3115 55.1188 54.1741 54.7733C54.5509 54.6223 54.9313 54.47 55.3121 54.3157C55.3952 58.577 56.7502 62.8136 58.1585 66.5408L58.991 68.7596C59.546 70.2454 60.1017 71.7315 60.6778 73.2087C60.9634 73.9399 61.3283 74.6445 61.6816 75.3259C62.0256 75.9893 62.3533 76.6262 62.6054 77.2677C62.3099 77.3687 62.0158 77.4682 61.7291 77.5605C58.6005 78.5671 55.8244 79.5275 53.2472 80.4873C52.7675 79.2853 52.3167 78.1022 51.9293 77.0528C51.8145 76.7411 51.5224 76.5291 51.1881 76.5145C45.2716 76.2562 37.0118 73.8078 31.2648 63.6191C31.2137 63.5267 26.2232 54.2768 29.3689 44.8591C31.3794 38.8405 36.2496 34.01 43.819 30.513C43.9058 30.4785 53.8084 26.3623 62.8734 30.759C68.63 33.5518 72.8306 39.1602 75.3834 47.4999C75.6106 48.0598 80.8054 61.3186 67.9019 70.9068ZM57.1006 51.7587C57.1344 51.484 57.1754 51.2096 57.2233 50.9353C57.5831 48.8916 58.1742 47.7659 58.5712 47.5854C58.5756 47.5832 58.581 47.5805 58.5871 47.5782C58.6308 47.5617 58.7201 47.5475 58.9177 47.6663C59.3887 47.9493 59.9049 49.277 59.7943 49.9219C59.7091 50.4157 58.9998 50.8333 58.3914 51.1415C57.9722 51.354 57.5403 51.5591 57.1006 51.7587ZM45.216 56.5822C44.7123 56.7202 44.2187 56.8266 43.7477 56.8866C42.631 57.0283 42.5883 57.0122 42.2311 56.3219C42.0201 55.8157 41.9187 53.655 42.1255 52.7298C42.8465 53.3039 44.1185 54.978 45.216 56.5822Z" fill="#2F2F37"/>
<path d="M61.4574 20.5036C61.9598 18.962 63.1755 16.0648 64.3407 13.8854C64.557 13.4802 64.4034 12.98 63.9973 12.7674C63.5908 12.5555 63.0867 12.7109 62.8696 13.1152C61.7867 15.1404 60.4695 18.1657 59.8718 20.0024C59.7298 20.4382 59.9697 20.904 60.4074 21.0419C60.5941 21.1009 60.7861 21.0911 60.9564 21.0267C61.1861 20.94 61.3759 20.7537 61.4574 20.5036Z" fill="#2F2F37"/>
<path d="M77.8205 26.7039C78.0744 26.5044 78.3482 26.3296 78.6207 26.1547C79.1462 25.8163 79.69 25.4664 80.1432 24.9596C80.4498 24.6165 80.4194 24.0933 80.0762 23.7908C79.7319 23.4881 79.2055 23.523 78.8989 23.8644C78.5977 24.2015 78.1711 24.4761 77.7199 24.7668C77.4036 24.9703 77.0859 25.1761 76.7912 25.4078C76.2108 25.8636 75.6207 26.7645 74.9957 27.7189C74.4841 28.4998 73.8474 29.4724 73.4693 29.7292C73.0886 29.9881 72.989 30.504 73.2475 30.8806C73.4682 31.2018 73.877 31.3184 74.2292 31.1853C74.2901 31.1623 74.349 31.132 74.4055 31.0939C75.0607 30.6484 75.707 29.6612 76.3917 28.6158C76.8906 27.8535 77.4564 26.99 77.8205 26.7039Z" fill="#2F2F37"/>
<path d="M89.4713 43.7463L83.4213 46.0322C82.9903 46.195 82.7715 46.6736 82.9329 47.1007C83.0943 47.5278 83.5748 47.7421 84.0058 47.5793L90.0558 45.2934C90.4868 45.1306 90.7055 44.652 90.5442 44.2249C90.3828 43.7979 89.9022 43.5835 89.4713 43.7463Z" fill="#2F2F37"/>
<path d="M12.58 32.6527C12.1353 32.5485 11.6832 32.82 11.5716 33.2656C11.4621 33.7105 11.7353 34.1568 12.1827 34.2635C14.9846 34.9296 18.9437 36.1991 21.652 37.7656C21.8779 37.8961 22.1404 37.9085 22.3676 37.8227C22.5404 37.7574 22.6924 37.6355 22.7935 37.4649C23.0268 37.0695 22.8939 36.5626 22.4977 36.333C20.0655 34.9269 16.3577 33.551 12.58 32.6527Z" fill="#2F2F37"/>
<path d="M35.3941 15.4103L37.4278 22.9833C37.5462 23.4243 38.0029 23.6846 38.4482 23.5641C38.475 23.5568 38.5008 23.5482 38.5267 23.5384C38.9232 23.3887 39.1503 22.9615 39.0391 22.5472L37.0054 14.9742C36.887 14.5332 36.4303 14.273 35.9851 14.3934C35.5463 14.5126 35.276 14.9686 35.3941 15.4103Z" fill="#2F2F37"/>
<path d="M10.9563 56.1648C10.9897 56.6206 11.389 56.9612 11.8482 56.9253L19.7479 56.307C19.8296 56.3003 19.9071 56.2825 19.9803 56.2549C20.3177 56.1274 20.5462 55.7913 20.519 55.4165C20.4856 54.9607 20.0863 54.6201 19.6271 54.656L11.7274 55.2743C11.2683 55.3137 10.9228 55.7089 10.9563 56.1648Z" fill="#2F2F37"/>
<path d="M25.6692 69.7237L19.2356 76.9122C18.9289 77.2549 18.9588 77.7782 19.3019 78.0808C19.5412 78.2914 19.8695 78.3394 20.15 78.2334C20.2725 78.1871 20.3859 78.1121 20.4789 78.0079L26.9126 70.8193C27.2193 70.4767 27.1894 69.9533 26.8462 69.6508C26.5017 69.3476 25.9741 69.3806 25.6692 69.7237Z" fill="#2F2F37"/>
<path d="M41.1889 81.1611L38.0375 87.3512C37.8291 87.7603 37.9932 88.2576 38.4037 88.4617C38.6205 88.5697 38.8621 88.5745 39.073 88.4948C39.2621 88.4233 39.4257 88.2844 39.524 88.0913L42.6754 81.9012C42.8838 81.4921 42.7197 80.9947 42.3092 80.7907C41.8977 80.5853 41.3961 80.7518 41.1889 81.1611Z" fill="#2F2F37"/>
<path d="M81.834 65.0707C81.4301 64.855 80.9247 65.0068 80.7035 65.4098C80.484 65.8127 80.6335 66.3145 81.0381 66.5305L87.4055 69.9298C87.6266 70.0477 87.8777 70.0559 88.0962 69.9733C88.2771 69.905 88.436 69.7736 88.5359 69.5908C88.7554 69.1879 88.6059 68.6861 88.2014 68.4701L81.834 65.0707Z" fill="#2F2F37"/>
<path d="M55.9601 77.7956C55.9794 77.7883 55.998 77.7806 56.0168 77.7718C56.4351 77.5787 56.6183 77.0859 56.4263 76.6715L55.1506 73.9192C54.9586 73.5048 54.4601 73.3306 54.0452 73.5191C53.6268 73.7122 53.4437 74.205 53.6356 74.6194L54.9114 77.3717C55.0946 77.7675 55.5545 77.9488 55.9601 77.7956Z" fill="#2F2F37"/>
</g>
<defs>
<clipPath id="clip0_672_881">
<rect width="79" height="86" fill="white" transform="translate(0 27.9219) rotate(-20.698)"/>
</clipPath>
</defs>
</svg>
