<svg width="203" height="166" viewBox="0 0 203 166" fill="none" xmlns="http://www.w3.org/2000/svg">
<path fill-rule="evenodd" clip-rule="evenodd" d="M40.7757 40.8385C26.8306 54.7835 21.7944 74.2639 25.667 92.2071C10.2409 102.157 0.0273438 119.492 0.0273438 139.214C0.0273413 158.935 10.2409 176.271 25.667 186.221C21.7944 204.164 26.8306 223.644 40.7757 237.59C54.7209 251.534 74.2012 256.57 92.1444 252.698C102.094 268.125 119.43 278.338 139.151 278.338C158.872 278.338 176.208 268.125 186.158 252.698C204.101 256.57 223.581 251.534 237.527 237.59C251.471 223.644 256.508 204.164 252.636 186.221C268.062 176.271 278.275 158.935 278.275 139.214C278.275 119.492 268.062 102.157 252.636 92.2071C256.508 74.2639 251.471 54.7837 237.527 40.8385C223.581 26.8934 204.101 21.8571 186.158 25.7298C176.208 10.3036 158.872 0.0900879 139.151 0.0900879C119.43 0.0900879 102.094 10.3036 92.1444 25.7296C74.2012 21.8571 54.7209 26.8934 40.7757 40.8385Z" fill="url(#paint0_linear_257_328)"/>
<defs>
<linearGradient id="paint0_linear_257_328" x1="246.276" y1="0.0900739" x2="54.9812" y2="212.254" gradientUnits="userSpaceOnUse">
<stop stop-color="#C5B2D8"/>
<stop offset="1" stop-color="#DCE0EC"/>
</linearGradient>
</defs>
</svg>
