<svg width="218" height="166" viewBox="0 0 218 166" fill="none" xmlns="http://www.w3.org/2000/svg">
<path d="M132.036 3.33496C137.341 -0.991537 144.957 -0.991537 150.261 3.33496L161.699 12.6637C165.299 15.5989 170.091 16.6208 174.574 15.409L188.784 11.5682C195.383 9.78455 202.327 12.8799 205.412 18.9799L212.127 32.2582C214.217 36.3903 218.163 39.2673 222.737 39.9918L237.341 42.3054C244.07 43.3715 249.135 49.0026 249.484 55.8068L250.252 70.7872C250.488 75.3931 252.915 79.6082 256.779 82.1267L269.274 90.2709C274.963 93.9802 277.293 101.158 274.865 107.503L269.49 121.55C267.845 125.847 268.351 130.672 270.849 134.535L279.01 147.145C282.697 152.845 281.909 160.343 277.118 165.153L266.55 175.763C263.3 179.026 261.804 183.644 262.525 188.193L264.876 203.042C265.939 209.759 262.163 216.307 255.816 218.752L241.96 224.086C237.648 225.747 234.392 229.374 233.206 233.84L229.369 248.284C227.617 254.882 221.48 259.345 214.664 258.981L199.945 258.193C195.313 257.945 190.844 259.941 187.938 263.555L178.656 275.101C174.368 280.435 166.922 282.019 160.834 278.893L147.733 272.167C143.6 270.046 138.698 270.046 134.564 272.167L121.463 278.893C115.376 282.019 107.93 280.435 103.642 275.101L94.3598 263.555C91.4533 259.941 86.985 257.945 82.353 258.193L67.6334 258.981C60.8179 259.345 54.6804 254.882 52.9283 248.284L49.0914 233.84C47.9051 229.374 44.65 225.747 40.3376 224.086L26.4818 218.752C20.1343 216.307 16.3584 209.759 17.4222 203.042L19.7733 188.193C20.4935 183.644 18.9975 179.026 15.7476 175.763L5.17875 165.153C0.388337 160.343 -0.398937 152.845 3.28828 147.145L11.4474 134.535C13.947 130.672 14.4524 125.847 12.8079 121.55L7.43218 107.503C5.00442 101.158 7.33407 93.9802 13.0246 90.2709L25.5191 82.1267C29.3829 79.6082 31.8085 75.3931 32.0448 70.7872L32.8136 55.8068C33.1628 49.0026 38.2272 43.3715 44.9565 42.3054L59.5604 39.9918C64.1338 39.2673 68.0808 36.3903 70.1705 32.2582L76.8857 18.9799C79.9705 12.8799 86.9149 9.78454 93.5139 11.5682L107.724 15.409C112.207 16.6208 116.999 15.5989 120.598 12.6637L132.036 3.33496Z" fill="url(#paint0_linear_257_347)"/>
<defs>
<linearGradient id="paint0_linear_257_347" x1="249.083" y1="0.0900738" x2="56.3068" y2="213.859" gradientUnits="userSpaceOnUse">
<stop stop-color="#C5B2D8"/>
<stop offset="1" stop-color="#DCE0EC"/>
</linearGradient>
</defs>
</svg>
