<svg width="218" height="166" viewBox="0 0 218 166" fill="none" xmlns="http://www.w3.org/2000/svg">
<path d="M142.926 9.01189C170.152 -10.4846 208.302 6.49508 212.039 39.7726L212.175 40.9812C213.9 56.3337 223.574 69.6457 237.643 76.0261L238.752 76.5289C269.25 90.3593 273.62 131.888 246.668 151.763L245.689 152.485C233.256 161.654 226.564 176.689 228.074 192.064L228.193 193.274C231.464 226.602 197.685 251.15 166.997 237.748L165.881 237.26C151.724 231.078 135.358 232.801 122.797 241.795L121.809 242.503C94.5829 262 56.4328 245.02 52.6954 211.742L52.5596 210.533C50.835 195.182 41.1605 181.869 27.0913 175.488L25.9834 174.986C-4.51417 161.156 -8.88452 119.628 18.0664 99.7514L19.045 99.0301C31.4781 89.861 38.1698 74.8259 36.6607 59.4511L36.5418 58.2407C33.2706 24.9138 67.05 0.365025 97.7384 13.7671L98.8529 14.2538C113.01 20.4366 129.377 18.7143 141.937 9.71997L142.926 9.01189Z" fill="url(#paint0_linear_257_356)"/>
<defs>
<linearGradient id="paint0_linear_257_356" x1="271.26" y1="42.4197" x2="28.4891" y2="137.058" gradientUnits="userSpaceOnUse">
<stop stop-color="#C5B2D8"/>
<stop offset="1" stop-color="#DCE0EC"/>
</linearGradient>
</defs>
</svg>
