<svg width="208" height="165" viewBox="0 0 208 165" fill="none" xmlns="http://www.w3.org/2000/svg">
<path fill-rule="evenodd" clip-rule="evenodd" d="M83.8955 28.8313C96.9488 40.1411 117.332 41.9787 132.886 34.473C146.057 28.1172 160.83 24.554 176.434 24.554C231.842 24.554 276.759 69.4706 276.759 124.879C276.759 180.287 231.842 225.204 176.434 225.204C161.182 225.204 146.725 221.801 133.78 215.712C118.153 208.36 97.7874 210.398 84.8461 221.835C68.7913 236.021 49.1552 246.247 27.467 250.982C12.5345 254.242 3.09528e-05 241.541 3.16209e-05 226.256L4.04075e-05 25.2417C4.10756e-05 9.95629 12.5331 -2.74556 27.467 0.514668C48.729 5.15729 68.0205 15.0763 83.8955 28.8313Z" fill="url(#paint0_linear_257_366)"/>
<defs>
<linearGradient id="paint0_linear_257_366" x1="276.759" y1="28.9221" x2="83.97" y2="220.209" gradientUnits="userSpaceOnUse">
<stop stop-color="#C5B2D8"/>
<stop offset="1" stop-color="#DCE0EC"/>
</linearGradient>
</defs>
</svg>
