<svg width="56" height="56" viewBox="0 0 56 56" fill="none" xmlns="http://www.w3.org/2000/svg">
<rect width="56" height="56" rx="12" fill="#2F2F37"/>
<path fill-rule="evenodd" clip-rule="evenodd" d="M17.7508 26.79C23.4564 24.3121 27.2547 22.6656 29.1621 21.8669C34.5906 19.6009 35.7317 19.2097 36.4653 19.1934C36.6283 19.1934 36.9869 19.226 37.2315 19.4216C37.4271 19.5846 37.476 19.7965 37.5086 19.9595C37.5412 20.1226 37.5738 20.4649 37.5412 20.7257C37.2478 23.8231 35.9762 31.3382 35.3242 34.7942C35.047 36.2614 34.5091 36.7504 33.9874 36.7993C32.8463 36.8971 31.9823 36.0494 30.89 35.3322C29.1621 34.2073 28.2002 33.5064 26.5212 32.3978C24.5812 31.1263 25.8365 30.4253 26.945 29.2842C27.2384 28.9908 32.2431 24.4262 32.3409 24.0187C32.3572 23.9698 32.3572 23.7742 32.2431 23.6764C32.129 23.5786 31.966 23.6112 31.8356 23.6438C31.6562 23.6764 28.9175 25.5022 23.5868 29.1049C22.8043 29.6428 22.1034 29.9037 21.4676 29.8874C20.7666 29.8711 19.4299 29.4961 18.4192 29.1701C17.1965 28.7788 16.2184 28.5669 16.2999 27.8822C16.3488 27.5236 16.8379 27.165 17.7508 26.79Z" fill="#F7F7F8"/>
</svg>
