<svg width="56" height="56" viewBox="0 0 56 56" fill="none" xmlns="http://www.w3.org/2000/svg">
<rect width="56" height="56" rx="12" fill="#2F2F37"/>
<path fill-rule="evenodd" clip-rule="evenodd" d="M19.4059 19.4059C18 20.8118 18 23.0745 18 27.5999V28.3999C18 32.9254 18 35.1881 19.4059 36.594C20.8118 37.9998 23.0745 37.9998 27.5999 37.9998H28.3999C32.9254 37.9998 35.1881 37.9998 36.594 36.594C37.9998 35.1881 37.9998 32.9254 37.9998 28.3999V27.5999C37.9998 23.0745 37.9998 20.8118 36.594 19.4059C35.1881 18 32.9254 18 28.3999 18H27.5999C23.0745 18 20.8118 18 19.4059 19.4059ZM21.3333 24.1249C21.4404 29.3274 24.173 32.4582 28.6771 32.4582H28.9384V29.4819C30.5788 29.6484 31.8021 30.8748 32.3014 32.4582H34.6665C34.0249 30.0895 32.3614 28.7799 31.3274 28.2796C32.3606 27.6608 33.8228 26.1606 34.1671 24.1249H32.0154C31.5639 25.7804 30.2208 27.2805 28.9376 27.423V24.1249H26.7515V29.899C25.4211 29.566 23.6856 27.9465 23.6145 24.1249H21.3333Z" fill="#F7F7F8"/>
</svg>
