<svg width="214" height="119" viewBox="0 0 214 119" fill="none" xmlns="http://www.w3.org/2000/svg">
<path d="M125.934 8.0567C149.87 -9.08411 183.411 5.844 186.696 35.1007L186.815 36.1632C188.332 49.6608 196.837 61.3643 209.206 66.9738L210.181 67.4158C236.994 79.5751 240.836 116.086 217.141 133.56L216.28 134.194C205.349 142.256 199.466 155.474 200.793 168.991L200.898 170.055C203.774 199.356 174.077 220.938 147.096 209.155L146.116 208.727C133.669 203.291 119.281 204.806 108.237 212.713L107.368 213.335C83.4318 230.477 49.8913 215.549 46.6055 186.291L46.4862 185.229C44.9699 171.732 36.4643 160.028 24.0951 154.418L23.121 153.977C-3.69159 141.817 -7.53387 105.307 16.1606 87.8324L17.021 87.1982C27.9518 79.137 33.835 65.9186 32.5082 52.4015L32.4037 51.3374C29.5277 22.0372 59.2257 0.45462 86.206 12.2373L87.1859 12.6653C99.6329 18.101 114.022 16.5868 125.064 8.67923L125.934 8.0567Z" fill="url(#paint0_linear_361_5072)"/>
<defs>
<linearGradient id="paint0_linear_361_5072" x1="238.761" y1="37.4279" x2="25.324" y2="120.631" gradientUnits="userSpaceOnUse">
<stop stop-color="#C5B2D8"/>
<stop offset="1" stop-color="#DCE0EC"/>
</linearGradient>
</defs>
</svg>
