<svg width="176" height="118" viewBox="0 0 176 118" fill="none" xmlns="http://www.w3.org/2000/svg">
<path fill-rule="evenodd" clip-rule="evenodd" d="M31.7789 31.7789C20.9034 42.6544 16.9757 57.8468 19.9959 71.8404C7.96533 79.5997 0 93.1197 0 108.5C-1.88959e-06 123.88 7.96533 137.4 19.9959 145.16C16.9757 159.153 20.9034 174.345 31.7789 185.221C42.6545 196.096 57.8468 200.024 71.8404 197.005C79.5998 209.035 93.1197 217 108.5 217C123.88 217 137.4 209.035 145.16 197.005C159.153 200.024 174.345 196.096 185.221 185.221C196.096 174.345 200.024 159.153 197.005 145.16C209.035 137.4 217 123.88 217 108.5C217 93.1197 209.035 79.5997 197.005 71.8404C200.024 57.8468 196.096 42.6545 185.221 31.7789C174.345 20.9034 159.153 16.9757 145.16 19.9959C137.4 7.96534 123.88 0 108.5 0C93.1197 0 79.5997 7.96532 71.8404 19.9958C57.8468 16.9757 42.6545 20.9034 31.7789 31.7789Z" fill="url(#paint0_linear_361_5045)"/>
<defs>
<linearGradient id="paint0_linear_361_5045" x1="192.045" y1="-1.08801e-05" x2="42.8575" y2="165.463" gradientUnits="userSpaceOnUse">
<stop stop-color="#C5B2D8"/>
<stop offset="1" stop-color="#DCE0EC"/>
</linearGradient>
</defs>
</svg>
