<svg width="185" height="118" viewBox="0 0 185 118" fill="none" xmlns="http://www.w3.org/2000/svg">
<path d="M102.132 2.52865C106.266 -0.842883 112.201 -0.842883 116.335 2.52865L125.248 9.79827C128.053 12.0856 131.788 12.882 135.281 11.9376L146.355 8.94459C151.497 7.55466 156.908 9.9668 159.313 14.7203L164.545 25.0678C166.174 28.2879 169.249 30.5298 172.813 31.0944L184.194 32.8974C189.437 33.7281 193.384 38.1163 193.656 43.4187L194.255 55.0925C194.439 58.6818 196.33 61.9665 199.341 63.9291L209.078 70.2757C213.512 73.1663 215.327 78.76 213.435 83.7038L209.247 94.6506C207.965 97.9995 208.359 101.759 210.306 104.769L216.665 114.596C219.538 119.038 218.925 124.881 215.191 128.63L206.956 136.898C204.423 139.44 203.257 143.039 203.819 146.584L205.651 158.155C206.479 163.39 203.537 168.492 198.591 170.398L187.794 174.555C184.433 175.849 181.896 178.675 180.971 182.156L177.982 193.411C176.616 198.553 171.834 202.031 166.522 201.747L155.052 201.134C151.442 200.94 147.96 202.495 145.695 205.312L138.462 214.309C135.12 218.466 129.318 219.7 124.574 217.264L114.365 212.023C111.144 210.37 107.324 210.37 104.103 212.023L93.8933 217.264C89.1494 219.7 83.3472 218.466 80.0058 214.309L72.7722 205.312C70.5072 202.495 67.0252 200.94 63.4156 201.134L51.945 201.747C46.6339 202.031 41.851 198.553 40.4857 193.411L37.4957 182.156C36.5712 178.675 34.0346 175.849 30.674 174.555L19.8766 170.398C14.9301 168.492 11.9877 163.39 12.8166 158.155L14.6488 146.584C15.21 143.039 14.0442 139.44 11.5116 136.898L3.27561 128.63C-0.457438 124.881 -1.07094 119.038 1.80242 114.596L8.16062 104.769C10.1085 101.759 10.5023 97.9995 9.22081 94.6506L5.03165 83.7038C3.13976 78.76 4.9552 73.1663 9.38968 70.2757L19.1264 63.9291C22.1373 61.9665 24.0275 58.6818 24.2117 55.0925L24.8108 43.4187C25.0829 38.1163 29.0295 33.7281 34.2734 32.8974L45.6539 31.0944C49.2178 30.5298 52.2936 28.2879 53.9221 25.0678L59.1551 14.7203C61.559 9.9668 66.9706 7.55465 72.113 8.94459L83.1863 11.9376C86.6799 12.882 90.4146 12.0856 93.2191 9.79827L102.132 2.52865Z" fill="url(#paint0_linear_361_5063)"/>
<defs>
<linearGradient id="paint0_linear_361_5063" x1="193.344" y1="-1.09556e-05" x2="43.1185" y2="166.584" gradientUnits="userSpaceOnUse">
<stop stop-color="#C5B2D8"/>
<stop offset="1" stop-color="#DCE0EC"/>
</linearGradient>
</defs>
</svg>
